Coordinates
version=1
nRows=8
nColumns=34
inDegrees=yes

Units are S.I. units (second, meters, Newtons, ...)
Angles are in degrees.

endheader
time	pelvis_tilt	pelvis_list	pelvis_rotation	pelvis_tx	pelvis_ty	pelvis_tz	hip_flexion_r	hip_adduction_r	hip_rotation_r	knee_angle_r	ankle_angle_r	subtalar_angle_r	mtp_angle_r	hip_flexion_l	hip_adduction_l	hip_rotation_l	knee_angle_l	socket_flexion	socket_adduction	socket_rotation	socket_tx	socket_ty	socket_tz	pros_ankle_rx	pros_ankle_ry	pros_ankle_rz	pros_ankle_tx	pros_ankle_ty	pros_ankle_tz	foot_flex	lumbar_extension	lumbar_bending	lumbar_rotation
      0.89166667	      1.67173735	     -8.00501874	      2.82869265	      0.44500357	      1.04651255	      0.40727004	      8.27433927	     11.20856520	     -6.53995708	    -18.39319258	      8.03414263	      7.70161084	     10.87518229	     22.15422588	    -14.20467172	      1.00995214	    -73.56708160	      0.00000000	      0.00000000	      0.00000000	      0.00000000	      0.03747772	      0.00000000	      0.00000000	      0.00000000	      0.00000000	      0.00000000	      0.00000000	      0.00000000	     -1.19116611	    -21.43830092	      1.12503906	      4.20000844
      0.89583333	      1.64219659	     -7.74893357	      2.82805029	      0.45024992	      1.04784155	      0.40699307	      7.78941697	     10.92160230	     -6.60132276	    -18.07012442	      7.99027219	      7.96440473	     10.96403199	     22.61957454	    -13.72088163	      1.12515175	    -73.09964797	      0.00000000	      0.00000000	      0.00000000	      0.00000000	      0.03748148	      0.00000000	      0.00000000	      0.00000000	      0.00000000	      0.00000000	      0.00000000	      0.00000000	     -1.19916370	    -21.38875946	      0.82258932	      4.09509034
      0.90000000	      1.55877127	     -7.60464865	      2.70921746	      0.45531024	      1.04898158	      0.40683536	      7.43496162	     10.75517041	     -6.59142531	    -17.86156652	      8.02341750	      8.06209942	     10.99288525	     23.11314262	    -13.39963080	      1.17563253	    -72.61019022	      0.00000000	      0.00000000	      0.00000000	      0.00000000	      0.03731461	      0.00000000	      0.00000000	      0.00000000	      0.00000000	      0.00000000	      0.00000000	      0.00000000	     -1.11900625	    -21.48353955	      0.76851333	      4.09508798
      0.90416667	      1.56809209	     -7.28720170	      2.76271862	      0.46059220	      1.05044532	      0.40646293	      6.84910775	     10.41137340	     -6.63125465	    -17.42325404	      7.90088775	      8.38832463	     11.09833476	     23.49523961	    -12.82170618	      1.31005136	    -72.02352792	      0.00000000	      0.00000000	      0.00000000	      0.00000000	      0.03737125	      0.00000000	      0.00000000	      0.00000000	      0.00000000	      0.00000000	      0.00000000	      0.00000000	     -1.19668907	    -21.29396130	      0.27327365	      3.97513140
      0.90833333	      1.53456965	     -7.04580532	      2.72118894	      0.46575652	      1.05173169	      0.40620127	      6.37659610	     10.14141629	     -6.64902055	    -17.10880537	      7.84149060	      8.65776288	     11.20708810	     23.86597579	    -12.36228018	      1.39698382	    -71.37923537	      0.00000000	      0.00000000	      0.00000000	      0.00000000	      0.03707736	      0.00000000	      0.00000000	      0.00000000	      0.00000000	      0.00000000	      0.00000000	      0.00000000	     -1.20166376	    -21.27905233	      0.03213203	      3.90879617
      0.91250000	      1.44309978	     -6.92400674	      2.60512782	      0.47075686	      1.05280688	      0.40604397	      6.04963717	      9.99488764	     -6.66359040	    -16.91646213	      7.85077256	      8.75692615	     11.24536968	     24.32440157	    -12.08210589	      1.42381738	    -70.76349410	      0.00000000	      0.00000000	      0.00000000	      0.00000000	      0.03684615	      0.00000000	      0.00000000	      0.00000000	      0.00000000	      0.00000000	      0.00000000	      0.00000000	     -1.09322777	    -21.39235546	     -0.03578503	      3.90839131
      0.91666667	      1.91518072	     -6.47110337	      2.62808924	      0.47644490	      1.05502812	      0.40565024	      4.96925722	      9.40895996	     -7.22224304	    -16.54385656	      7.70447245	     10.11007437	     12.45268379	     23.76129226	    -11.43661077	      1.34794101	    -69.60094356	      0.00000000	      0.00000000	      0.00000000	      0.00000000	      0.03528802	      0.00000000	      0.00000000	      0.00000000	      0.00000000	      0.00000000	      0.00000000	      0.00000000	     -1.20428921	    -21.79317978	     -0.63461134	      3.70790718
      0.92083333	      1.81526120	     -6.27781332	      2.57180301	      0.48148263	      1.05614941	      0.40548862	      4.57595699	      9.21028651	     -7.16144627	    -16.20330850	      7.63730655	     10.22437376	     12.54736868	     24.22456357	    -11.05954552	      1.42073480	    -68.91271701	      0.00000000	      0.00000000	      0.00000000	      0.00000000	      0.03532397	      0.00000000	      0.00000000	      0.00000000	      0.00000000	      0.00000000	      0.00000000	      0.00000000	     -1.18819471	    -21.66879421	     -0.86033321	      3.70752075
